<svg width="100" height="100" viewBox="0 0 100 100" fill="none" xmlns="http://www.w3.org/2000/svg">
<g clip-path="url(#clip0_653_12)">
<g clip-path="url(#clip1_653_12)">
<path d="M15 0H85C93.2843 0 100 6.71573 100 15V85C100 93.2843 93.2843 100 85 100H15C6.71573 100 0 93.2843 0 85V15C0 6.71573 6.71573 0 15 0ZM15 0H85C93.2843 0 100 6.71573 100 15V85C100 93.2843 93.2843 100 85 100H15C6.71573 100 0 93.2843 0 85V15C0 6.71573 6.71573 0 15 0Z" fill="#D5EBFF"/>
<g opacity="0.9">
<path d="M71.7827 48.0372C71.7893 48.0372 91.0428 48.0372 91.0428 48.0372Z" fill="white"/>
<path d="M71.7827 48.0372C71.7893 48.0372 91.0428 48.0372 91.0428 48.0372" stroke="white" stroke-width="7" stroke-linecap="round"/>
</g>
<path d="M36.5119 44.2412H64.5826L44.2904 76.8179H16.2197L36.5119 44.2412ZM36.5119 44.2412H64.5826L44.2904 76.8179H16.2197L36.5119 44.2412Z" fill="#94E170"/>
<path d="M36.5119 44.2412H64.5826L44.2904 76.8179H16.2197L36.5119 44.2412Z" stroke="#355027" stroke-width="6" stroke-linejoin="round"/>
<path d="M64.5824 44.2412H36.5117L56.8039 78.3331H84.8746L64.5824 44.2412ZM64.5824 44.2412H36.5117L56.8039 78.3331H84.8746L64.5824 44.2412Z" fill="#94E170"/>
<g opacity="0.5">
<path d="M58.7134 45.164C58.7357 45.1619 77.8126 76.3525 77.8126 76.3525Z" fill="white"/>
<path d="M58.7134 45.164C58.7357 45.1619 77.8126 76.3525 77.8126 76.3525" stroke="white" stroke-width="5" stroke-linecap="round"/>
</g>
<path d="M64.5824 44.2412H36.5117L56.8039 78.3331H84.8746L64.5824 44.2412Z" stroke="#355027" stroke-width="6" stroke-linejoin="round"/>
<path d="M32.3611 29.1092C30.8955 29.2751 29.8657 30.4182 30.0612 31.6624C30.2566 32.9066 31.6032 33.7808 33.0688 33.6149L32.3611 29.1092ZM100 26.0389L102.654 25.7386L101.946 21.2328L99.2932 21.5332L100 26.0389ZM33.0688 33.6149L100 26.0389L99.2932 21.5332L32.3611 29.1092L33.0688 33.6149ZM32.3611 29.1092C30.8955 29.2751 29.8657 30.4182 30.0612 31.6624C30.2566 32.9066 31.6032 33.7808 33.0688 33.6149L32.3611 29.1092ZM100 26.0389L102.654 25.7386L101.946 21.2328L99.2932 21.5332L100 26.0389ZM33.0688 33.6149L100 26.0389L99.2932 21.5332L32.3611 29.1092L33.0688 33.6149Z" fill="#A99494"/>
<path d="M70.9603 32.8365C70.4637 33.2286 70.3832 33.9437 70.7804 34.4338C71.1777 34.9238 71.9023 35.0033 72.3989 34.6113L70.9603 32.8365ZM83.9139 25.5201L84.813 24.8102L83.3744 23.0355L82.4753 23.7453L83.9139 25.5201ZM72.3989 34.6113L83.9139 25.5201L82.4753 23.7453L70.9603 32.8365L72.3989 34.6113ZM70.9603 32.8365C70.4637 33.2286 70.3832 33.9437 70.7804 34.4338C71.1777 34.9238 71.9023 35.0033 72.3989 34.6113L70.9603 32.8365ZM83.9139 25.5201L84.813 24.8102L83.3744 23.0355L82.4753 23.7453L83.9139 25.5201ZM72.3989 34.6113L83.9139 25.5201L82.4753 23.7453L70.9603 32.8365L72.3989 34.6113Z" fill="#A99494"/>
<path d="M43.4231 21.1837C42.8147 21.001 42.1714 21.3396 41.9862 21.94C41.8011 22.5404 42.1441 23.1753 42.7526 23.358L43.4231 21.1837ZM60.4089 28.6612L61.5105 28.9921L62.181 26.8178L61.0793 26.4869L60.4089 28.6612ZM42.7526 23.358L60.4089 28.6612L61.0793 26.4869L43.4231 21.1837L42.7526 23.358ZM43.4231 21.1837C42.8147 21.001 42.1714 21.3396 41.9862 21.94C41.8011 22.5404 42.1441 23.1753 42.7526 23.358L43.4231 21.1837ZM60.4089 28.6612L61.5105 28.9921L62.181 26.8178L61.0793 26.4869L60.4089 28.6612ZM42.7526 23.358L60.4089 28.6612L61.0793 26.4869L43.4231 21.1837L42.7526 23.358Z" fill="#A99494"/>
<path d="M45.3784 35.666V37.8907Z" fill="black"/>
<path d="M45.3784 35.666V37.8907" stroke="#FD9494" stroke-width="5" stroke-linecap="round" stroke-linejoin="round"/>
<path d="M60.7358 33.6351L60.7433 59.3935Z" fill="black"/>
<path d="M60.7358 33.6351L60.7433 59.3935" stroke="#FD9494" stroke-width="5" stroke-linecap="round" stroke-linejoin="round"/>
<g opacity="0.6">
<path d="M14.929 12.5199C14.9372 12.5199 39.0697 12.5199 39.0697 12.5199Z" fill="white"/>
<path d="M14.929 12.5199C14.9372 12.5199 39.0697 12.5199 39.0697 12.5199" stroke="white" stroke-width="7" stroke-linecap="round"/>
</g>
<g opacity="0.5">
<path d="M7.15308 67.5204C7.16056 67.5204 29.1263 67.5204 29.1263 67.5204Z" fill="white"/>
<path d="M7.15308 67.5204C7.16056 67.5204 29.1263 67.5204 29.1263 67.5204" stroke="white" stroke-width="8" stroke-linecap="round"/>
</g>
<g opacity="0.6">
<path d="M81.9985 90.756C82.0068 90.756 106.139 90.756 106.139 90.756Z" fill="white"/>
<path d="M81.9985 90.756C82.0068 90.756 106.139 90.756 106.139 90.756" stroke="white" stroke-width="8" stroke-linecap="round"/>
</g>
</g>
</g>
<defs>
<clipPath id="clip0_653_12">
<rect width="100" height="100" rx="15" fill="white"/>
</clipPath>
<clipPath id="clip1_653_12">
<rect width="100" height="100" fill="white"/>
</clipPath>
</defs>
</svg>
